<mxfile host="app.diagrams.net" modified="2022-05-23T22:50:16.792Z" agent="5.0 (Windows NT 10.0; Win64; x64) AppleWebKit/537.36 (KHTML, like Gecko) Chrome/101.0.4951.67 Safari/537.36" etag="s9z1VA-ky5_ZNsczhz7H" version="18.1.1" type="github">
  <diagram id="ZKuzIo3IAKMWzGdQoTDE" name="Page-1">
    <mxGraphModel dx="978" dy="535" grid="1" gridSize="10" guides="1" tooltips="1" connect="1" arrows="1" fold="1" page="1" pageScale="1" pageWidth="850" pageHeight="1100" math="0" shadow="0">
      <root>
        <mxCell id="0" />
        <mxCell id="1" parent="0" />
        <mxCell id="OixJH3IoC0BLkZi-Ovtm-1" style="edgeStyle=orthogonalEdgeStyle;rounded=0;orthogonalLoop=1;jettySize=auto;html=1;exitX=0.5;exitY=0;exitDx=0;exitDy=0;entryX=0;entryY=0.5;entryDx=0;entryDy=0;" edge="1" parent="1" source="OixJH3IoC0BLkZi-Ovtm-2" target="OixJH3IoC0BLkZi-Ovtm-3">
          <mxGeometry relative="1" as="geometry" />
        </mxCell>
        <mxCell id="OixJH3IoC0BLkZi-Ovtm-2" value="" style="ellipse;whiteSpace=wrap;html=1;fillColor=#dae8fc;strokeColor=#6c8ebf;" vertex="1" parent="1">
          <mxGeometry x="40" y="230" width="130" height="200" as="geometry" />
        </mxCell>
        <mxCell id="OixJH3IoC0BLkZi-Ovtm-3" value="d" style="ellipse;whiteSpace=wrap;html=1;" vertex="1" parent="1">
          <mxGeometry x="274" y="130" width="60" height="60" as="geometry" />
        </mxCell>
        <mxCell id="OixJH3IoC0BLkZi-Ovtm-4" style="edgeStyle=orthogonalEdgeStyle;rounded=0;orthogonalLoop=1;jettySize=auto;html=1;entryX=0;entryY=0.5;entryDx=0;entryDy=0;" edge="1" parent="1" source="OixJH3IoC0BLkZi-Ovtm-5" target="OixJH3IoC0BLkZi-Ovtm-9">
          <mxGeometry relative="1" as="geometry" />
        </mxCell>
        <mxCell id="OixJH3IoC0BLkZi-Ovtm-5" value="c" style="ellipse;whiteSpace=wrap;html=1;" vertex="1" parent="1">
          <mxGeometry x="240" y="190" width="60" height="60" as="geometry" />
        </mxCell>
        <mxCell id="OixJH3IoC0BLkZi-Ovtm-6" style="edgeStyle=orthogonalEdgeStyle;rounded=0;orthogonalLoop=1;jettySize=auto;html=1;entryX=0;entryY=0.5;entryDx=0;entryDy=0;" edge="1" parent="1" source="OixJH3IoC0BLkZi-Ovtm-7" target="OixJH3IoC0BLkZi-Ovtm-10">
          <mxGeometry relative="1" as="geometry" />
        </mxCell>
        <mxCell id="OixJH3IoC0BLkZi-Ovtm-7" value="g" style="ellipse;whiteSpace=wrap;html=1;" vertex="1" parent="1">
          <mxGeometry x="240" y="280" width="60" height="60" as="geometry" />
        </mxCell>
        <mxCell id="OixJH3IoC0BLkZi-Ovtm-8" value="e" style="ellipse;whiteSpace=wrap;html=1;" vertex="1" parent="1">
          <mxGeometry x="225" y="390" width="60" height="60" as="geometry" />
        </mxCell>
        <mxCell id="OixJH3IoC0BLkZi-Ovtm-9" value="f" style="ellipse;whiteSpace=wrap;html=1;" vertex="1" parent="1">
          <mxGeometry x="354" y="240" width="60" height="60" as="geometry" />
        </mxCell>
        <mxCell id="OixJH3IoC0BLkZi-Ovtm-10" value="h" style="ellipse;whiteSpace=wrap;html=1;" vertex="1" parent="1">
          <mxGeometry x="354" y="320" width="60" height="60" as="geometry" />
        </mxCell>
        <mxCell id="OixJH3IoC0BLkZi-Ovtm-11" value="R1(a) -&amp;gt; (c,g,f,h)&amp;nbsp;" style="text;html=1;strokeColor=none;fillColor=none;align=center;verticalAlign=middle;whiteSpace=wrap;rounded=0;" vertex="1" parent="1">
          <mxGeometry x="54" y="60" width="160" height="20" as="geometry" />
        </mxCell>
        <mxCell id="OixJH3IoC0BLkZi-Ovtm-12" value="R2(a) -&amp;gt; (g, h, e)&amp;nbsp;" style="text;html=1;strokeColor=none;fillColor=none;align=center;verticalAlign=middle;whiteSpace=wrap;rounded=0;" vertex="1" parent="1">
          <mxGeometry x="54" y="90" width="156" height="20" as="geometry" />
        </mxCell>
        <mxCell id="OixJH3IoC0BLkZi-Ovtm-13" value="R3(a, b) -&amp;gt; (d)&amp;nbsp;" style="text;html=1;strokeColor=none;fillColor=none;align=center;verticalAlign=middle;whiteSpace=wrap;rounded=0;" vertex="1" parent="1">
          <mxGeometry x="54" y="120" width="146" height="20" as="geometry" />
        </mxCell>
        <mxCell id="OixJH3IoC0BLkZi-Ovtm-14" value="Cheia relatiei ab, 1FN, deoarece &lt;br&gt;exista dependente tranzitive&amp;nbsp;" style="text;html=1;strokeColor=none;fillColor=none;align=center;verticalAlign=middle;whiteSpace=wrap;rounded=0;" vertex="1" parent="1">
          <mxGeometry x="240" y="60" width="240" height="40" as="geometry" />
        </mxCell>
        <mxCell id="OixJH3IoC0BLkZi-Ovtm-15" style="edgeStyle=orthogonalEdgeStyle;rounded=0;orthogonalLoop=1;jettySize=auto;html=1;entryX=0;entryY=0.5;entryDx=0;entryDy=0;" edge="1" parent="1" source="OixJH3IoC0BLkZi-Ovtm-17" target="OixJH3IoC0BLkZi-Ovtm-5">
          <mxGeometry relative="1" as="geometry" />
        </mxCell>
        <mxCell id="OixJH3IoC0BLkZi-Ovtm-16" style="edgeStyle=orthogonalEdgeStyle;rounded=0;orthogonalLoop=1;jettySize=auto;html=1;entryX=0;entryY=0.283;entryDx=0;entryDy=0;entryPerimeter=0;" edge="1" parent="1" source="OixJH3IoC0BLkZi-Ovtm-17" target="OixJH3IoC0BLkZi-Ovtm-7">
          <mxGeometry relative="1" as="geometry" />
        </mxCell>
        <mxCell id="OixJH3IoC0BLkZi-Ovtm-17" value="a" style="ellipse;whiteSpace=wrap;html=1;" vertex="1" parent="1">
          <mxGeometry x="75" y="270" width="60" height="60" as="geometry" />
        </mxCell>
        <mxCell id="OixJH3IoC0BLkZi-Ovtm-18" style="edgeStyle=orthogonalEdgeStyle;rounded=0;orthogonalLoop=1;jettySize=auto;html=1;entryX=0;entryY=0.767;entryDx=0;entryDy=0;entryPerimeter=0;" edge="1" parent="1" source="OixJH3IoC0BLkZi-Ovtm-20" target="OixJH3IoC0BLkZi-Ovtm-7">
          <mxGeometry relative="1" as="geometry" />
        </mxCell>
        <mxCell id="OixJH3IoC0BLkZi-Ovtm-19" style="edgeStyle=orthogonalEdgeStyle;rounded=0;orthogonalLoop=1;jettySize=auto;html=1;entryX=0;entryY=0.5;entryDx=0;entryDy=0;" edge="1" parent="1" source="OixJH3IoC0BLkZi-Ovtm-20">
          <mxGeometry relative="1" as="geometry">
            <mxPoint x="230" y="420" as="targetPoint" />
            <Array as="points">
              <mxPoint x="180" y="370" />
              <mxPoint x="180" y="420" />
            </Array>
          </mxGeometry>
        </mxCell>
        <mxCell id="OixJH3IoC0BLkZi-Ovtm-20" value="b" style="ellipse;whiteSpace=wrap;html=1;" vertex="1" parent="1">
          <mxGeometry x="75" y="340" width="60" height="60" as="geometry" />
        </mxCell>
        <mxCell id="OixJH3IoC0BLkZi-Ovtm-21" style="edgeStyle=orthogonalEdgeStyle;rounded=0;orthogonalLoop=1;jettySize=auto;html=1;exitX=0.5;exitY=0;exitDx=0;exitDy=0;entryX=0;entryY=0.5;entryDx=0;entryDy=0;" edge="1" parent="1" source="OixJH3IoC0BLkZi-Ovtm-22" target="OixJH3IoC0BLkZi-Ovtm-23">
          <mxGeometry relative="1" as="geometry" />
        </mxCell>
        <mxCell id="OixJH3IoC0BLkZi-Ovtm-22" value="" style="ellipse;whiteSpace=wrap;html=1;fillColor=#dae8fc;strokeColor=#6c8ebf;" vertex="1" parent="1">
          <mxGeometry x="440" y="230" width="130" height="200" as="geometry" />
        </mxCell>
        <mxCell id="OixJH3IoC0BLkZi-Ovtm-23" value="d" style="ellipse;whiteSpace=wrap;html=1;" vertex="1" parent="1">
          <mxGeometry x="580" y="80" width="60" height="60" as="geometry" />
        </mxCell>
        <mxCell id="OixJH3IoC0BLkZi-Ovtm-24" style="edgeStyle=orthogonalEdgeStyle;rounded=0;orthogonalLoop=1;jettySize=auto;html=1;entryX=0;entryY=0.5;entryDx=0;entryDy=0;" edge="1" parent="1" source="OixJH3IoC0BLkZi-Ovtm-25" target="OixJH3IoC0BLkZi-Ovtm-29">
          <mxGeometry relative="1" as="geometry" />
        </mxCell>
        <mxCell id="OixJH3IoC0BLkZi-Ovtm-25" value="c" style="ellipse;whiteSpace=wrap;html=1;" vertex="1" parent="1">
          <mxGeometry x="630" y="160" width="60" height="60" as="geometry" />
        </mxCell>
        <mxCell id="OixJH3IoC0BLkZi-Ovtm-26" style="edgeStyle=orthogonalEdgeStyle;rounded=0;orthogonalLoop=1;jettySize=auto;html=1;entryX=0;entryY=0.5;entryDx=0;entryDy=0;" edge="1" parent="1" source="OixJH3IoC0BLkZi-Ovtm-27" target="OixJH3IoC0BLkZi-Ovtm-30">
          <mxGeometry relative="1" as="geometry" />
        </mxCell>
        <mxCell id="OixJH3IoC0BLkZi-Ovtm-27" value="g" style="ellipse;whiteSpace=wrap;html=1;" vertex="1" parent="1">
          <mxGeometry x="630" y="260" width="60" height="60" as="geometry" />
        </mxCell>
        <mxCell id="OixJH3IoC0BLkZi-Ovtm-28" value="e" style="ellipse;whiteSpace=wrap;html=1;" vertex="1" parent="1">
          <mxGeometry x="754" y="400" width="60" height="60" as="geometry" />
        </mxCell>
        <mxCell id="OixJH3IoC0BLkZi-Ovtm-29" value="f" style="ellipse;whiteSpace=wrap;html=1;" vertex="1" parent="1">
          <mxGeometry x="754" y="240" width="60" height="60" as="geometry" />
        </mxCell>
        <mxCell id="OixJH3IoC0BLkZi-Ovtm-30" value="h" style="ellipse;whiteSpace=wrap;html=1;" vertex="1" parent="1">
          <mxGeometry x="754" y="320" width="60" height="60" as="geometry" />
        </mxCell>
        <mxCell id="OixJH3IoC0BLkZi-Ovtm-31" style="edgeStyle=orthogonalEdgeStyle;rounded=0;orthogonalLoop=1;jettySize=auto;html=1;entryX=0;entryY=0.5;entryDx=0;entryDy=0;" edge="1" parent="1" source="OixJH3IoC0BLkZi-Ovtm-33" target="OixJH3IoC0BLkZi-Ovtm-25">
          <mxGeometry relative="1" as="geometry" />
        </mxCell>
        <mxCell id="OixJH3IoC0BLkZi-Ovtm-32" style="edgeStyle=orthogonalEdgeStyle;rounded=0;orthogonalLoop=1;jettySize=auto;html=1;entryX=0;entryY=0.283;entryDx=0;entryDy=0;entryPerimeter=0;" edge="1" parent="1" source="OixJH3IoC0BLkZi-Ovtm-33" target="OixJH3IoC0BLkZi-Ovtm-27">
          <mxGeometry relative="1" as="geometry" />
        </mxCell>
        <mxCell id="OixJH3IoC0BLkZi-Ovtm-33" value="a" style="ellipse;whiteSpace=wrap;html=1;" vertex="1" parent="1">
          <mxGeometry x="475" y="270" width="60" height="60" as="geometry" />
        </mxCell>
        <mxCell id="OixJH3IoC0BLkZi-Ovtm-34" style="edgeStyle=orthogonalEdgeStyle;rounded=0;orthogonalLoop=1;jettySize=auto;html=1;entryX=0;entryY=0.5;entryDx=0;entryDy=0;" edge="1" parent="1" source="OixJH3IoC0BLkZi-Ovtm-35" target="OixJH3IoC0BLkZi-Ovtm-28">
          <mxGeometry relative="1" as="geometry" />
        </mxCell>
        <mxCell id="OixJH3IoC0BLkZi-Ovtm-35" value="b" style="ellipse;whiteSpace=wrap;html=1;" vertex="1" parent="1">
          <mxGeometry x="475" y="340" width="60" height="60" as="geometry" />
        </mxCell>
        <mxCell id="OixJH3IoC0BLkZi-Ovtm-36" value="R2" style="shape=table;startSize=30;container=1;collapsible=1;childLayout=tableLayout;fixedRows=1;rowLines=0;fontStyle=1;align=center;resizeLast=1;" vertex="1" parent="1">
          <mxGeometry x="325" y="720" width="180" height="100" as="geometry" />
        </mxCell>
        <mxCell id="OixJH3IoC0BLkZi-Ovtm-37" value="" style="shape=partialRectangle;collapsible=0;dropTarget=0;pointerEvents=0;fillColor=none;top=0;left=0;bottom=1;right=0;points=[[0,0.5],[1,0.5]];portConstraint=eastwest;" vertex="1" parent="OixJH3IoC0BLkZi-Ovtm-36">
          <mxGeometry y="30" width="180" height="30" as="geometry" />
        </mxCell>
        <mxCell id="OixJH3IoC0BLkZi-Ovtm-38" value="PK" style="shape=partialRectangle;connectable=0;fillColor=none;top=0;left=0;bottom=0;right=0;fontStyle=1;overflow=hidden;" vertex="1" parent="OixJH3IoC0BLkZi-Ovtm-37">
          <mxGeometry width="30" height="30" as="geometry">
            <mxRectangle width="30" height="30" as="alternateBounds" />
          </mxGeometry>
        </mxCell>
        <mxCell id="OixJH3IoC0BLkZi-Ovtm-39" value="b" style="shape=partialRectangle;connectable=0;fillColor=none;top=0;left=0;bottom=0;right=0;align=left;spacingLeft=6;fontStyle=5;overflow=hidden;" vertex="1" parent="OixJH3IoC0BLkZi-Ovtm-37">
          <mxGeometry x="30" width="150" height="30" as="geometry">
            <mxRectangle width="150" height="30" as="alternateBounds" />
          </mxGeometry>
        </mxCell>
        <mxCell id="OixJH3IoC0BLkZi-Ovtm-40" value="" style="shape=partialRectangle;collapsible=0;dropTarget=0;pointerEvents=0;fillColor=none;top=0;left=0;bottom=0;right=0;points=[[0,0.5],[1,0.5]];portConstraint=eastwest;" vertex="1" parent="OixJH3IoC0BLkZi-Ovtm-36">
          <mxGeometry y="60" width="180" height="30" as="geometry" />
        </mxCell>
        <mxCell id="OixJH3IoC0BLkZi-Ovtm-41" value="" style="shape=partialRectangle;connectable=0;fillColor=none;top=0;left=0;bottom=0;right=0;editable=1;overflow=hidden;" vertex="1" parent="OixJH3IoC0BLkZi-Ovtm-40">
          <mxGeometry width="30" height="30" as="geometry">
            <mxRectangle width="30" height="30" as="alternateBounds" />
          </mxGeometry>
        </mxCell>
        <mxCell id="OixJH3IoC0BLkZi-Ovtm-42" value="e" style="shape=partialRectangle;connectable=0;fillColor=none;top=0;left=0;bottom=0;right=0;align=left;spacingLeft=6;overflow=hidden;" vertex="1" parent="OixJH3IoC0BLkZi-Ovtm-40">
          <mxGeometry x="30" width="150" height="30" as="geometry">
            <mxRectangle width="150" height="30" as="alternateBounds" />
          </mxGeometry>
        </mxCell>
        <mxCell id="OixJH3IoC0BLkZi-Ovtm-43" value="R3" style="shape=table;startSize=30;container=1;collapsible=1;childLayout=tableLayout;fixedRows=1;rowLines=0;fontStyle=1;align=center;resizeLast=1;" vertex="1" parent="1">
          <mxGeometry x="325" y="520" width="180" height="130" as="geometry" />
        </mxCell>
        <mxCell id="OixJH3IoC0BLkZi-Ovtm-44" value="" style="shape=partialRectangle;collapsible=0;dropTarget=0;pointerEvents=0;fillColor=none;top=0;left=0;bottom=1;right=0;points=[[0,0.5],[1,0.5]];portConstraint=eastwest;" vertex="1" parent="OixJH3IoC0BLkZi-Ovtm-43">
          <mxGeometry y="30" width="180" height="30" as="geometry" />
        </mxCell>
        <mxCell id="OixJH3IoC0BLkZi-Ovtm-45" value="PK" style="shape=partialRectangle;connectable=0;fillColor=none;top=0;left=0;bottom=0;right=0;fontStyle=1;overflow=hidden;" vertex="1" parent="OixJH3IoC0BLkZi-Ovtm-44">
          <mxGeometry width="40" height="30" as="geometry">
            <mxRectangle width="40" height="30" as="alternateBounds" />
          </mxGeometry>
        </mxCell>
        <mxCell id="OixJH3IoC0BLkZi-Ovtm-46" value="a" style="shape=partialRectangle;connectable=0;fillColor=none;top=0;left=0;bottom=0;right=0;align=left;spacingLeft=6;fontStyle=5;overflow=hidden;" vertex="1" parent="OixJH3IoC0BLkZi-Ovtm-44">
          <mxGeometry x="40" width="140" height="30" as="geometry">
            <mxRectangle width="140" height="30" as="alternateBounds" />
          </mxGeometry>
        </mxCell>
        <mxCell id="OixJH3IoC0BLkZi-Ovtm-47" value="" style="shape=partialRectangle;collapsible=0;dropTarget=0;pointerEvents=0;fillColor=none;top=0;left=0;bottom=0;right=0;points=[[0,0.5],[1,0.5]];portConstraint=eastwest;" vertex="1" parent="OixJH3IoC0BLkZi-Ovtm-43">
          <mxGeometry y="60" width="180" height="30" as="geometry" />
        </mxCell>
        <mxCell id="OixJH3IoC0BLkZi-Ovtm-48" value="" style="shape=partialRectangle;connectable=0;fillColor=none;top=0;left=0;bottom=0;right=0;editable=1;overflow=hidden;" vertex="1" parent="OixJH3IoC0BLkZi-Ovtm-47">
          <mxGeometry width="40" height="30" as="geometry">
            <mxRectangle width="40" height="30" as="alternateBounds" />
          </mxGeometry>
        </mxCell>
        <mxCell id="OixJH3IoC0BLkZi-Ovtm-49" value="c" style="shape=partialRectangle;connectable=0;fillColor=none;top=0;left=0;bottom=0;right=0;align=left;spacingLeft=6;overflow=hidden;" vertex="1" parent="OixJH3IoC0BLkZi-Ovtm-47">
          <mxGeometry x="40" width="140" height="30" as="geometry">
            <mxRectangle width="140" height="30" as="alternateBounds" />
          </mxGeometry>
        </mxCell>
        <mxCell id="OixJH3IoC0BLkZi-Ovtm-50" value="" style="shape=partialRectangle;collapsible=0;dropTarget=0;pointerEvents=0;fillColor=none;top=0;left=0;bottom=0;right=0;points=[[0,0.5],[1,0.5]];portConstraint=eastwest;" vertex="1" parent="OixJH3IoC0BLkZi-Ovtm-43">
          <mxGeometry y="90" width="180" height="30" as="geometry" />
        </mxCell>
        <mxCell id="OixJH3IoC0BLkZi-Ovtm-51" value="" style="shape=partialRectangle;connectable=0;fillColor=none;top=0;left=0;bottom=0;right=0;editable=1;overflow=hidden;" vertex="1" parent="OixJH3IoC0BLkZi-Ovtm-50">
          <mxGeometry width="40" height="30" as="geometry">
            <mxRectangle width="40" height="30" as="alternateBounds" />
          </mxGeometry>
        </mxCell>
        <mxCell id="OixJH3IoC0BLkZi-Ovtm-52" value="g" style="shape=partialRectangle;connectable=0;fillColor=none;top=0;left=0;bottom=0;right=0;align=left;spacingLeft=6;overflow=hidden;" vertex="1" parent="OixJH3IoC0BLkZi-Ovtm-50">
          <mxGeometry x="40" width="140" height="30" as="geometry">
            <mxRectangle width="140" height="30" as="alternateBounds" />
          </mxGeometry>
        </mxCell>
        <mxCell id="OixJH3IoC0BLkZi-Ovtm-53" value="R4" style="shape=table;startSize=30;container=1;collapsible=1;childLayout=tableLayout;fixedRows=1;rowLines=0;fontStyle=1;align=center;resizeLast=1;" vertex="1" parent="1">
          <mxGeometry x="605" y="520" width="180" height="100" as="geometry" />
        </mxCell>
        <mxCell id="OixJH3IoC0BLkZi-Ovtm-54" value="" style="shape=partialRectangle;collapsible=0;dropTarget=0;pointerEvents=0;fillColor=none;top=0;left=0;bottom=1;right=0;points=[[0,0.5],[1,0.5]];portConstraint=eastwest;" vertex="1" parent="OixJH3IoC0BLkZi-Ovtm-53">
          <mxGeometry y="30" width="180" height="30" as="geometry" />
        </mxCell>
        <mxCell id="OixJH3IoC0BLkZi-Ovtm-55" value="PK" style="shape=partialRectangle;connectable=0;fillColor=none;top=0;left=0;bottom=0;right=0;fontStyle=1;overflow=hidden;" vertex="1" parent="OixJH3IoC0BLkZi-Ovtm-54">
          <mxGeometry width="40" height="30" as="geometry">
            <mxRectangle width="40" height="30" as="alternateBounds" />
          </mxGeometry>
        </mxCell>
        <mxCell id="OixJH3IoC0BLkZi-Ovtm-56" value="c" style="shape=partialRectangle;connectable=0;fillColor=none;top=0;left=0;bottom=0;right=0;align=left;spacingLeft=6;fontStyle=5;overflow=hidden;" vertex="1" parent="OixJH3IoC0BLkZi-Ovtm-54">
          <mxGeometry x="40" width="140" height="30" as="geometry">
            <mxRectangle width="140" height="30" as="alternateBounds" />
          </mxGeometry>
        </mxCell>
        <mxCell id="OixJH3IoC0BLkZi-Ovtm-57" value="" style="shape=partialRectangle;collapsible=0;dropTarget=0;pointerEvents=0;fillColor=none;top=0;left=0;bottom=0;right=0;points=[[0,0.5],[1,0.5]];portConstraint=eastwest;" vertex="1" parent="OixJH3IoC0BLkZi-Ovtm-53">
          <mxGeometry y="60" width="180" height="30" as="geometry" />
        </mxCell>
        <mxCell id="OixJH3IoC0BLkZi-Ovtm-58" value="" style="shape=partialRectangle;connectable=0;fillColor=none;top=0;left=0;bottom=0;right=0;editable=1;overflow=hidden;" vertex="1" parent="OixJH3IoC0BLkZi-Ovtm-57">
          <mxGeometry width="40" height="30" as="geometry">
            <mxRectangle width="40" height="30" as="alternateBounds" />
          </mxGeometry>
        </mxCell>
        <mxCell id="OixJH3IoC0BLkZi-Ovtm-59" value="f" style="shape=partialRectangle;connectable=0;fillColor=none;top=0;left=0;bottom=0;right=0;align=left;spacingLeft=6;overflow=hidden;" vertex="1" parent="OixJH3IoC0BLkZi-Ovtm-57">
          <mxGeometry x="40" width="140" height="30" as="geometry">
            <mxRectangle width="140" height="30" as="alternateBounds" />
          </mxGeometry>
        </mxCell>
        <mxCell id="OixJH3IoC0BLkZi-Ovtm-60" value="R5" style="shape=table;startSize=30;container=1;collapsible=1;childLayout=tableLayout;fixedRows=1;rowLines=0;fontStyle=1;align=center;resizeLast=1;" vertex="1" parent="1">
          <mxGeometry x="605" y="720" width="180" height="100" as="geometry" />
        </mxCell>
        <mxCell id="OixJH3IoC0BLkZi-Ovtm-61" value="" style="shape=partialRectangle;collapsible=0;dropTarget=0;pointerEvents=0;fillColor=none;top=0;left=0;bottom=1;right=0;points=[[0,0.5],[1,0.5]];portConstraint=eastwest;" vertex="1" parent="OixJH3IoC0BLkZi-Ovtm-60">
          <mxGeometry y="30" width="180" height="30" as="geometry" />
        </mxCell>
        <mxCell id="OixJH3IoC0BLkZi-Ovtm-62" value="PK" style="shape=partialRectangle;connectable=0;fillColor=none;top=0;left=0;bottom=0;right=0;fontStyle=1;overflow=hidden;" vertex="1" parent="OixJH3IoC0BLkZi-Ovtm-61">
          <mxGeometry width="40" height="30" as="geometry">
            <mxRectangle width="40" height="30" as="alternateBounds" />
          </mxGeometry>
        </mxCell>
        <mxCell id="OixJH3IoC0BLkZi-Ovtm-63" value="g" style="shape=partialRectangle;connectable=0;fillColor=none;top=0;left=0;bottom=0;right=0;align=left;spacingLeft=6;fontStyle=5;overflow=hidden;" vertex="1" parent="OixJH3IoC0BLkZi-Ovtm-61">
          <mxGeometry x="40" width="140" height="30" as="geometry">
            <mxRectangle width="140" height="30" as="alternateBounds" />
          </mxGeometry>
        </mxCell>
        <mxCell id="OixJH3IoC0BLkZi-Ovtm-64" value="" style="shape=partialRectangle;collapsible=0;dropTarget=0;pointerEvents=0;fillColor=none;top=0;left=0;bottom=0;right=0;points=[[0,0.5],[1,0.5]];portConstraint=eastwest;" vertex="1" parent="OixJH3IoC0BLkZi-Ovtm-60">
          <mxGeometry y="60" width="180" height="30" as="geometry" />
        </mxCell>
        <mxCell id="OixJH3IoC0BLkZi-Ovtm-65" value="" style="shape=partialRectangle;connectable=0;fillColor=none;top=0;left=0;bottom=0;right=0;editable=1;overflow=hidden;" vertex="1" parent="OixJH3IoC0BLkZi-Ovtm-64">
          <mxGeometry width="40" height="30" as="geometry">
            <mxRectangle width="40" height="30" as="alternateBounds" />
          </mxGeometry>
        </mxCell>
        <mxCell id="OixJH3IoC0BLkZi-Ovtm-66" value="h" style="shape=partialRectangle;connectable=0;fillColor=none;top=0;left=0;bottom=0;right=0;align=left;spacingLeft=6;overflow=hidden;" vertex="1" parent="OixJH3IoC0BLkZi-Ovtm-64">
          <mxGeometry x="40" width="140" height="30" as="geometry">
            <mxRectangle width="140" height="30" as="alternateBounds" />
          </mxGeometry>
        </mxCell>
        <mxCell id="OixJH3IoC0BLkZi-Ovtm-67" value="R1" style="shape=table;startSize=30;container=1;collapsible=1;childLayout=tableLayout;fixedRows=1;rowLines=0;fontStyle=1;align=center;resizeLast=1;" vertex="1" parent="1">
          <mxGeometry x="40" y="520" width="180" height="130" as="geometry" />
        </mxCell>
        <mxCell id="OixJH3IoC0BLkZi-Ovtm-68" value="" style="shape=partialRectangle;collapsible=0;dropTarget=0;pointerEvents=0;fillColor=none;top=0;left=0;bottom=0;right=0;points=[[0,0.5],[1,0.5]];portConstraint=eastwest;" vertex="1" parent="OixJH3IoC0BLkZi-Ovtm-67">
          <mxGeometry y="30" width="180" height="30" as="geometry" />
        </mxCell>
        <mxCell id="OixJH3IoC0BLkZi-Ovtm-69" value="PK,FK1" style="shape=partialRectangle;connectable=0;fillColor=none;top=0;left=0;bottom=0;right=0;fontStyle=1;overflow=hidden;" vertex="1" parent="OixJH3IoC0BLkZi-Ovtm-68">
          <mxGeometry width="60" height="30" as="geometry">
            <mxRectangle width="60" height="30" as="alternateBounds" />
          </mxGeometry>
        </mxCell>
        <mxCell id="OixJH3IoC0BLkZi-Ovtm-70" value="a" style="shape=partialRectangle;connectable=0;fillColor=none;top=0;left=0;bottom=0;right=0;align=left;spacingLeft=6;fontStyle=5;overflow=hidden;" vertex="1" parent="OixJH3IoC0BLkZi-Ovtm-68">
          <mxGeometry x="60" width="120" height="30" as="geometry">
            <mxRectangle width="120" height="30" as="alternateBounds" />
          </mxGeometry>
        </mxCell>
        <mxCell id="OixJH3IoC0BLkZi-Ovtm-71" value="" style="shape=partialRectangle;collapsible=0;dropTarget=0;pointerEvents=0;fillColor=none;top=0;left=0;bottom=1;right=0;points=[[0,0.5],[1,0.5]];portConstraint=eastwest;" vertex="1" parent="OixJH3IoC0BLkZi-Ovtm-67">
          <mxGeometry y="60" width="180" height="30" as="geometry" />
        </mxCell>
        <mxCell id="OixJH3IoC0BLkZi-Ovtm-72" value="PK,FK2" style="shape=partialRectangle;connectable=0;fillColor=none;top=0;left=0;bottom=0;right=0;fontStyle=1;overflow=hidden;" vertex="1" parent="OixJH3IoC0BLkZi-Ovtm-71">
          <mxGeometry width="60" height="30" as="geometry">
            <mxRectangle width="60" height="30" as="alternateBounds" />
          </mxGeometry>
        </mxCell>
        <mxCell id="OixJH3IoC0BLkZi-Ovtm-73" value="b" style="shape=partialRectangle;connectable=0;fillColor=none;top=0;left=0;bottom=0;right=0;align=left;spacingLeft=6;fontStyle=5;overflow=hidden;" vertex="1" parent="OixJH3IoC0BLkZi-Ovtm-71">
          <mxGeometry x="60" width="120" height="30" as="geometry">
            <mxRectangle width="120" height="30" as="alternateBounds" />
          </mxGeometry>
        </mxCell>
        <mxCell id="OixJH3IoC0BLkZi-Ovtm-74" value="" style="shape=partialRectangle;collapsible=0;dropTarget=0;pointerEvents=0;fillColor=none;top=0;left=0;bottom=0;right=0;points=[[0,0.5],[1,0.5]];portConstraint=eastwest;" vertex="1" parent="OixJH3IoC0BLkZi-Ovtm-67">
          <mxGeometry y="90" width="180" height="30" as="geometry" />
        </mxCell>
        <mxCell id="OixJH3IoC0BLkZi-Ovtm-75" value="" style="shape=partialRectangle;connectable=0;fillColor=none;top=0;left=0;bottom=0;right=0;editable=1;overflow=hidden;" vertex="1" parent="OixJH3IoC0BLkZi-Ovtm-74">
          <mxGeometry width="60" height="30" as="geometry">
            <mxRectangle width="60" height="30" as="alternateBounds" />
          </mxGeometry>
        </mxCell>
        <mxCell id="OixJH3IoC0BLkZi-Ovtm-76" value="d" style="shape=partialRectangle;connectable=0;fillColor=none;top=0;left=0;bottom=0;right=0;align=left;spacingLeft=6;overflow=hidden;" vertex="1" parent="OixJH3IoC0BLkZi-Ovtm-74">
          <mxGeometry x="60" width="120" height="30" as="geometry">
            <mxRectangle width="120" height="30" as="alternateBounds" />
          </mxGeometry>
        </mxCell>
        <mxCell id="OixJH3IoC0BLkZi-Ovtm-77" style="edgeStyle=orthogonalEdgeStyle;rounded=0;orthogonalLoop=1;jettySize=auto;html=1;entryX=0;entryY=0.5;entryDx=0;entryDy=0;" edge="1" parent="1" source="OixJH3IoC0BLkZi-Ovtm-68" target="OixJH3IoC0BLkZi-Ovtm-44">
          <mxGeometry relative="1" as="geometry" />
        </mxCell>
        <mxCell id="OixJH3IoC0BLkZi-Ovtm-78" style="edgeStyle=orthogonalEdgeStyle;rounded=0;orthogonalLoop=1;jettySize=auto;html=1;entryX=0;entryY=0.5;entryDx=0;entryDy=0;" edge="1" parent="1" source="OixJH3IoC0BLkZi-Ovtm-71" target="OixJH3IoC0BLkZi-Ovtm-37">
          <mxGeometry relative="1" as="geometry" />
        </mxCell>
        <mxCell id="OixJH3IoC0BLkZi-Ovtm-79" style="edgeStyle=orthogonalEdgeStyle;rounded=0;orthogonalLoop=1;jettySize=auto;html=1;entryX=1;entryY=0.5;entryDx=0;entryDy=0;" edge="1" parent="1" source="OixJH3IoC0BLkZi-Ovtm-54" target="OixJH3IoC0BLkZi-Ovtm-47">
          <mxGeometry relative="1" as="geometry" />
        </mxCell>
        <mxCell id="OixJH3IoC0BLkZi-Ovtm-80" style="edgeStyle=orthogonalEdgeStyle;rounded=0;orthogonalLoop=1;jettySize=auto;html=1;entryX=1;entryY=0.5;entryDx=0;entryDy=0;" edge="1" parent="1" source="OixJH3IoC0BLkZi-Ovtm-61" target="OixJH3IoC0BLkZi-Ovtm-50">
          <mxGeometry relative="1" as="geometry" />
        </mxCell>
        <mxCell id="OixJH3IoC0BLkZi-Ovtm-81" value="Forma BC&lt;br&gt;nu exista&amp;nbsp; candidati la cheia primara" style="text;html=1;strokeColor=none;fillColor=none;align=center;verticalAlign=middle;whiteSpace=wrap;rounded=0;" vertex="1" parent="1">
          <mxGeometry x="40" y="720" width="185" height="60" as="geometry" />
        </mxCell>
        <mxCell id="OixJH3IoC0BLkZi-Ovtm-82" value="&lt;b&gt;&lt;font style=&quot;font-size: 15px&quot;&gt;Laborator nr. 2. Gestiunea informatiei&lt;/font&gt;&lt;/b&gt;" style="text;html=1;strokeColor=none;fillColor=none;align=center;verticalAlign=middle;whiteSpace=wrap;rounded=0;" vertex="1" parent="1">
          <mxGeometry x="54" y="20" width="280" height="20" as="geometry" />
        </mxCell>
        <mxCell id="OixJH3IoC0BLkZi-Ovtm-83" value="&lt;b style=&quot;&quot;&gt;Exercitiul 5&lt;/b&gt;" style="text;html=1;align=center;verticalAlign=middle;whiteSpace=wrap;rounded=0;labelBackgroundColor=#ffffff;" vertex="1" parent="1">
          <mxGeometry x="380" y="20" width="80" height="20" as="geometry" />
        </mxCell>
      </root>
    </mxGraphModel>
  </diagram>
</mxfile>
